<?xml version="1.0" standalone="no"?>
<!DOCTYPE svg PUBLIC "-//W3C//DTD SVG 1.1//EN" "http://www.w3.org/Graphics/SVG/1.1/DTD/svg11.dtd" >
<svg xmlns="http://www.w3.org/2000/svg">
<metadata>Generated by IcoMoon</metadata>
<defs>
<font id="icomoon" horiz-adv-x="512">
<font-face units-per-em="512" ascent="480" descent="-32" />
<missing-glyph horiz-adv-x="512" />
<glyph unicode="&#x20;" d="" horiz-adv-x="256" />
<glyph unicode="&#xe600;" d="M366.857 302.286q0 8-5.143 13.143l-26 25.715q-5.428 5.428-12.857 5.428t-12.857-5.428l-116.572-116.286-64.572 64.572q-5.428 5.428-12.857 5.428t-12.857-5.428l-26-25.714q-5.143-5.143-5.143-13.143 0-7.714 5.143-12.857l103.428-103.428q5.428-5.428 12.857-5.428 7.714 0 13.143 5.428l155.143 155.143q5.143 5.143 5.143 12.857zM438.857 256q0-59.714-29.428-110.143t-79.857-79.857-110.143-29.428-110.143 29.428-79.857 79.857-29.428 110.143 29.428 110.143 79.857 79.857 110.143 29.428 110.143-29.428 79.857-79.857 29.428-110.143z" horiz-adv-x="439" />
<glyph unicode="&#xe601;" d="M265.143 124.572v204.572h-91.428v-204.572q0-7.143 5.143-11t13.143-3.857h54.857q8 0 13.143 3.857t5.143 11zM134.857 365.714h55.715l-36 46q-7.428 8.857-19.714 8.857-11.428 0-19.428-8t-8-19.428 8-19.429 19.428-8zM331.428 393.143q0 11.428-8 19.428t-19.428 8q-12.286 0-19.714-8.857l-35.714-46h55.428q11.428 0 19.428 8t8 19.429zM438.857 320v-91.428q0-4-2.572-6.572t-6.572-2.572h-27.428v-118.857q0-11.428-8-19.428t-19.428-8h-310.857q-11.428 0-19.428 8t-8 19.428v118.857h-27.428q-4 0-6.572 2.572t-2.571 6.572v91.428q0 4 2.571 6.572t6.572 2.572h125.715q-26.572 0-45.285 18.714t-18.715 45.286 18.715 45.285 45.285 18.715q30.572 0 48-22l36.572-47.143 36.572 47.143q17.428 22 48 22 26.572 0 45.286-18.715t18.714-45.285-18.714-45.286-45.286-18.714h125.714q4 0 6.572-2.572t2.572-6.571z" horiz-adv-x="439" />
<glyph unicode="&#xe602;" d="M466.286 237.714q0-7.428-5.428-12.857t-12.857-5.429h-64q0-48.857-19.143-82.857l59.428-59.714q5.428-5.428 5.428-12.857t-5.428-12.857q-5.143-5.428-12.857-5.428t-12.857 5.428l-56.572 56.286q-1.428-1.428-4.286-3.714t-12-8.143-18.572-10.428-23.428-8.286-27.714-3.714v256h-36.572v-256q-14.572 0-29 3.857t-24.857 9.428-18.857 11.143-12.428 9.286l-4.286 4-52.285-59.143q-5.715-6-13.715-6-6.857 0-12.285 4.572-5.428 5.143-5.857 12.714t4.428 13.286l57.715 64.857q-16.572 32.572-16.572 78.286h-64q-7.428 0-12.857 5.428t-5.428 12.857 5.428 12.857 12.857 5.428h64v84l-49.428 49.428q-5.428 5.428-5.428 12.857t5.428 12.857 12.857 5.429 12.857-5.429l49.428-49.428h241.143l49.428 49.428q5.428 5.429 12.857 5.429t12.857-5.429 5.428-12.857-5.428-12.857l-49.428-49.428v-84h64q7.428 0 12.857-5.428t5.428-12.857zM329.143 402.286h-182.857q0 38 26.715 64.714t64.714 26.714 64.714-26.714 26.714-64.714z" horiz-adv-x="476" />
<glyph unicode="&#xe603;" d="M310.857 237.714v182.857h-128v-324.857q34 18 60.857 39.143 67.143 52.572 67.143 102.857zM365.714 457.143v-219.429q0-24.572-9.572-48.714t-23.714-42.857-33.714-36.428-36.143-29.428-34.572-22.143-25.572-14.143-12.143-5.714q-3.429-1.714-7.429-1.714t-7.428 1.714q-4.572 2-12.143 5.714t-25.571 14.143-34.572 22.143-36.143 29.428-33.715 36.428-23.715 42.857-9.572 48.714v219.429q0 7.428 5.428 12.857t12.857 5.428h329.143q7.428 0 12.857-5.428t5.428-12.857z" horiz-adv-x="366" />
<glyph unicode="&#xe604;" d="M146.286 219.428v-109.714h-73.143v109.714h73.143zM256 365.714v-256h-73.143v256h73.143zM365.714 292.572v-182.857h-73.143v182.857h73.143zM475.428 402.286v-292.572h-73.143v292.572h73.143zM512 82.286v347.428q0 3.714-2.714 6.428t-6.428 2.714h-457.143q-3.715 0-6.428-2.714t-2.715-6.428v-347.428q0-3.714 2.715-6.428t6.428-2.714h457.143q3.714 0 6.428 2.714t2.714 6.428zM548.572 429.714v-347.428q0-18.857-13.428-32.286t-32.286-13.428h-457.143q-18.857 0-32.285 13.428t-13.428 32.286v347.428q0 18.857 13.428 32.286t32.285 13.428h457.143q18.857 0 32.286-13.428t13.428-32.286z" horiz-adv-x="549" />
<glyph unicode="&#xe605;" d="M477.428 350.286q0-11.428-8-19.428l-245.714-245.714q-8-8-19.428-8t-19.428 8l-142.286 142.286q-8 8-8 19.428t8 19.428l38.857 38.857q8 8 19.428 8t19.428-8l84-84.286 187.429 187.714q8 8 19.428 8t19.428-8l38.857-38.857q8-8 8-19.429z" />
<glyph unicode="&#xe606;" d="M91.428 292.572h146.286v54.857q0 30.286-21.428 51.714t-51.714 21.429-51.715-21.429-21.428-51.714v-54.857zM329.143 265.143v-164.572q0-11.428-8-19.428t-19.428-8h-274.286q-11.428 0-19.428 8t-8 19.428v164.572q0 11.428 8 19.428t19.428 8h9.143v54.857q0 52.572 37.715 90.286t90.285 37.714 90.285-37.714 37.714-90.286v-54.857h9.143q11.428 0 19.428-8t8-19.428z" horiz-adv-x="329" />
<glyph unicode="&#xe607;" d="M170 237.714q0-3.714-2.857-6.572l-133.143-133.143q-2.857-2.857-6.572-2.857t-6.572 2.857l-14.286 14.286q-2.857 2.857-2.857 6.572t2.857 6.572l112.285 112.286-112.285 112.286q-2.857 2.857-2.857 6.572t2.857 6.571l14.285 14.286q2.857 2.857 6.572 2.857t6.572-2.857l133.143-133.143q2.857-2.857 2.857-6.572z" horiz-adv-x="183" />
<glyph unicode="&#xe608;" d="M179.143 356.572q0-3.715-2.857-6.572l-112.285-112.286 112.285-112.286q2.857-2.857 2.857-6.572t-2.857-6.572l-14.286-14.286q-2.857-2.857-6.572-2.857t-6.572 2.857l-133.143 133.143q-2.857 2.857-2.857 6.571t2.857 6.572l133.143 133.143q2.857 2.857 6.572 2.857t6.572-2.857l14.286-14.286q2.857-2.857 2.857-6.572z" horiz-adv-x="183" />
<glyph unicode="&#xe609;" d="M292.572 173.714v-18.286q0-4-2.572-6.572t-6.572-2.572h-201.143q-4 0-6.572 2.572t-2.572 6.572v18.286q0 4 2.572 6.572t6.572 2.572h201.143q4 0 6.572-2.572t2.572-6.572zM292.572 246.857v-18.285q0-4-2.572-6.572t-6.572-2.572h-201.143q-4 0-6.572 2.572t-2.572 6.572v18.286q0 4 2.572 6.572t6.572 2.571h201.143q4 0 6.572-2.571t2.572-6.572zM36.572 73.143h292.572v219.429h-118.857q-11.429 0-19.429 8t-8 19.428v118.857h-146.286v-365.714zM219.429 329.143h107.429q-2.857 8.285-6.286 11.714l-89.428 89.429q-3.429 3.428-11.714 6.286v-107.429zM365.714 320v-256q0-11.428-8-19.428t-19.428-8h-310.857q-11.428 0-19.428 8t-8 19.428v384q0 11.428 8 19.428t19.428 8h182.857q11.429 0 25.143-5.714t21.714-13.714l89.143-89.143q8-8 13.714-21.714t5.714-25.143z" horiz-adv-x="366" />
<glyph unicode="&#xe60a;" d="M192 186.667c0 0 101.972 61.18 159.383 37.013 11.901 18.134 23.624 37.668 35.101 57.611-56.163 13.76-130.484 1.376-130.484 1.376s95.106 57.061 153.333 39.2c11.675 21.054 23.027 41.821 33.978 61.152-46.388 3.134-91.311-4.352-91.311-4.352s59.574 35.744 113.289 41.799c16.899 27.43 32.585 48.94 46.711 59.534-280.5 0-448-320-512-512h32l96 160c0 0 32-32 128 0 22.737 7.579 45.474 28.626 67.786 56.967-56.308 14.277-131.786 1.7-131.786 1.7z" horiz-adv-x="549" />
<glyph unicode="&#xe60b;" d="M438.857 256q0-44.572-17.428-85.143t-46.857-70-70-46.857-85.143-17.428q-49.143 0-93.428 20.714t-75.428 58.428q-2 2.857-1.857 6.428t2.428 5.857l39.143 39.428q2.857 2.572 7.143 2.572 4.572-0.572 6.572-3.428 20.857-27.143 51.143-42t64.286-14.857q29.714 0 56.714 11.572t46.714 31.286 31.286 46.714 11.572 56.714-11.572 56.714-31.286 46.714-46.714 31.286-56.714 11.572q-28 0-53.714-10.143t-45.715-29l39.143-39.428q8.857-8.572 4-19.714-4.857-11.428-16.857-11.428h-128q-7.428 0-12.857 5.428t-5.428 12.857v128q0 12 11.428 16.857 11.143 4.857 19.715-4l37.143-36.857q30.572 28.857 69.857 44.714t81.286 15.857q44.572 0 85.143-17.428t70-46.857 46.857-70 17.428-85.143z" horiz-adv-x="439" />
<glyph unicode="&#xe60c;" d="M338.857 238.571l73.428 71.429-120.572 17.714-8.572 17.143-45.428 92v-275.143l16.857-8.857 90.857-48-17.143 101.428-3.428 18.857zM468 313.428l-103.714-101.143 24.572-142.857q1.428-9.428-1.714-14.714t-9.714-5.286q-4.857 0-11.428 3.428l-128.286 67.428-128.286-67.428q-6.572-3.428-11.428-3.428-6.572 0-9.715 5.286t-1.715 14.714l24.572 142.857-104 101.143q-9.143 9.143-6.572 17t15.428 9.857l143.429 20.857 64.286 130q5.714 11.715 14 11.715 8 0 14-11.714l64.286-130 143.429-20.857q12.857-2 15.428-9.857t-6.857-17z" horiz-adv-x="476" />
<glyph unicode="&#xe60d;" d="M460.286 274.286q0-15.143-10.572-25.714l-186-186.286q-11.143-10.572-26-10.572-15.143 0-25.714 10.572l-186 186.286q-10.857 10.286-10.857 25.714 0 15.143 10.857 26l21.143 21.428q11.143 10.572 26 10.572 15.143 0 25.715-10.572l84-84v201.143q0 14.857 10.857 25.715t25.715 10.857h36.572q14.857 0 25.714-10.857t10.857-25.715v-201.143l84 84q10.572 10.572 25.714 10.572 14.857 0 26-10.572l21.428-21.428q10.572-11.143 10.572-26z" horiz-adv-x="476" />
<glyph unicode="&#xe60e;" d="M460.286 234.571q0-14.571-10.572-25.715l-21.428-21.428q-10.857-10.857-26-10.857-15.428 0-25.714 10.857l-84 83.714v-201.143q0-14.857-10.714-24.143t-25.857-9.286h-36.571q-15.143 0-25.857 9.286t-10.714 24.143v201.143l-84-83.715q-10.285-10.857-25.715-10.857t-25.715 10.857l-21.428 21.428q-10.857 10.857-10.857 25.714 0 15.143 10.857 26l186 186q10 10.572 25.714 10.572 15.428 0 26-10.572l186-186q10.572-11.143 10.572-26z" horiz-adv-x="476" />
<glyph unicode="&#xe60f;" d="M420.572 237.714q0-15.428-10.572-26l-186-186q-11.143-10.572-26-10.572-14.572 0-25.714 10.572l-21.428 21.428q-10.857 10.857-10.857 26t10.857 26l83.714 83.714h-201.143q-14.857 0-24.143 10.714t-9.286 25.857v36.572q0 15.143 9.286 25.857t24.143 10.715h201.143l-83.714 84q-10.857 10.285-10.857 25.714t10.857 25.714l21.428 21.428q10.857 10.857 25.714 10.857 15.143 0 26-10.857l186-186q10.572-10 10.572-25.714z" horiz-adv-x="439" />
<glyph unicode="&#xe610;" d="M438.857 256v-36.572q0-15.143-9.286-25.857t-24.143-10.714h-201.143l83.715-84q10.857-10.286 10.857-25.714t-10.857-25.714l-21.428-21.714q-10.572-10.572-25.714-10.572-14.857 0-26 10.572l-186 186.286q-10.572 10.572-10.572 25.714 0 14.857 10.572 26l186 185.714q10.857 10.857 26 10.857 14.857 0 25.714-10.857l21.428-21.143q10.857-10.857 10.857-26t-10.857-26l-83.714-83.715h201.143q14.857 0 24.143-10.714t9.286-25.857z" horiz-adv-x="439" />
<glyph unicode="&#xe611;" d="M370.857 134.286q0-11.428-8-19.428l-38.857-38.857q-8-8-19.428-8t-19.428 8l-84 84-84-84q-8-8-19.428-8t-19.428 8l-38.857 38.857q-8 8-8 19.428t8 19.428l84 84-84 84q-8 8-8 19.428t8 19.428l38.857 38.857q8 8 19.428 8t19.428-8l84-84 84 84q8 8 19.428 8t19.428-8l38.857-38.857q8-8 8-19.428t-8-19.428l-84-84 84-84q8-8 8-19.428z" horiz-adv-x="403" />
<glyph unicode="&#xe612;" d="M307.143 173.714q0-3.714-2.857-6.572l-14.286-14.286q-2.857-2.857-6.572-2.857t-6.572 2.857l-112.286 112.286-112.285-112.286q-2.857-2.857-6.572-2.857t-6.572 2.857l-14.285 14.286q-2.857 2.857-2.857 6.572t2.857 6.572l133.143 133.143q2.857 2.857 6.571 2.857t6.572-2.857l133.143-133.143q2.857-2.857 2.857-6.572z" horiz-adv-x="329" />
<glyph unicode="&#xe613;" d="M307.143 301.714q0-3.714-2.857-6.572l-133.143-133.143q-2.857-2.857-6.571-2.857t-6.572 2.857l-133.143 133.143q-2.857 2.857-2.857 6.571t2.857 6.572l14.285 14.286q2.857 2.857 6.572 2.857t6.572-2.857l112.285-112.286 112.285 112.286q2.857 2.857 6.572 2.857t6.572-2.857l14.286-14.286q2.857-2.857 2.857-6.572z" horiz-adv-x="329" />
<glyph unicode="&#xe614;" d="M460.286 310.857q0-15.143-10.572-25.714l-186-186q-10.857-10.857-26-10.857-15.428 0-25.714 10.857l-186 186q-10.857 10.286-10.857 25.714 0 15.143 10.857 26l21.143 21.428q11.143 10.572 26 10.572 15.143 0 25.715-10.572l138.857-138.857 138.857 138.857q10.572 10.571 25.714 10.571 14.857 0 26-10.571l21.428-21.429q10.572-11.143 10.572-26z" horiz-adv-x="476" />
<glyph unicode="&#xe615;" d="M460.286 164.572q0-15.143-10.572-25.714l-21.428-21.428q-10.857-10.857-26-10.857-15.428 0-25.714 10.857l-138.857 138.571-138.857-138.571q-10.285-10.857-25.715-10.857t-25.715 10.857l-21.428 21.428q-10.857 10.286-10.857 25.714 0 15.143 10.857 26l186 186q10.572 10.572 25.714 10.572 14.857 0 26-10.572l185.714-186q10.857-10.857 10.857-26z" horiz-adv-x="476" />
<glyph unicode="&#xe616;" d="M212 62.572l-186.286 186q-10.572 10.572-10.572 25.857t10.572 25.857l186.286 186q10.572 10.572 25.857 10.572t25.857-10.572l21.428-21.428q10.572-10.572 10.572-25.857t-10.572-25.857l-138.857-138.857 138.857-138.571q10.572-10.857 10.572-26t-10.572-25.714l-21.428-21.428q-10.572-10.572-25.857-10.572t-25.857 10.572z" horiz-adv-x="329" />
<glyph unicode="&#xe617;" d="M314 274.286q0-14.857-10.572-26l-186.286-186q-10.572-10.572-25.715-10.572t-25.715 10.572l-21.715 21.428q-10.572 11.143-10.572 26 0 15.143 10.572 25.714l138.857 138.857-138.857 138.572q-10.572 11.143-10.572 26 0 15.143 10.572 25.714l21.715 21.429q10.285 10.857 25.715 10.857t25.715-10.857l186.286-186q10.572-10.572 10.572-25.715z" horiz-adv-x="329" />
<glyph unicode="&#xe618;" d="M512 309.143v-226.857q0-18.857-13.428-32.286t-32.286-13.428h-420.572q-18.857 0-32.285 13.428t-13.428 32.286v226.857q12.572-14 28.857-24.857 103.429-70.286 142-98.572 16.285-12 26.429-18.714t27-13.714 31.428-7h0.572q14.572 0 31.428 7t27 13.714 26.428 18.714q48.572 35.143 142.286 98.572 16.286 11.143 28.572 24.857zM512 393.143q0-22.572-14-43.143t-34.857-35.143q-107.428-74.571-133.714-92.857-2.857-2-12.143-8.714t-15.428-10.857-14.857-9.286-16.428-7.714-14.286-2.572h-0.571q-6.571 0-14.286 2.572t-16.429 7.714-14.857 9.286-15.429 10.857-12.143 8.714q-26 18.286-74.857 52.143t-58.572 40.715q-17.715 12-33.428 33t-15.714 39q0 22.286 11.857 37.143t33.857 14.857h420.572q18.572 0 32.143-13.428t13.572-32.286z" />
<glyph unicode="&#xe619;" d="M365.714 337.714q-16-7.143-34.572-9.714 19.428 11.428 26.572 33.428-18.572-10.857-38.286-14.572-17.428 18.857-43.714 18.857-24.857 0-42.428-17.572t-17.572-42.428q0-8.286 1.429-13.714-36.857 2-69.143 18.572t-54.857 44.286q-8.285-14.286-8.285-30.286 0-32.572 26-50-13.428 0.286-28.572 7.428v-0.572q0-21.428 14.285-38.143t35.143-20.714q-8.285-2.286-14.572-2.286-3.715 0-11.143 1.143 6-18 21.285-29.714t34.715-12q-33.143-25.714-74.572-25.714-7.428 0-14.285 0.857 42.285-26.857 92-26.857 32 0 60 10.143t48 27.143 34.428 39.143 21.428 46.286 7 48.143q0 5.143-0.286 7.715 18 12.857 30 31.143zM438.857 393.143v-274.286q0-34-24.143-58.143t-58.143-24.143h-274.286q-34 0-58.143 24.143t-24.143 58.143v274.286q0 34 24.143 58.143t58.143 24.143h274.286q34 0 58.143-24.143t24.143-58.143z" horiz-adv-x="439" />
<glyph unicode="&#xe61a;" d="M373.428 249.714l6.572 62.572h-56.572v31.143q0 14 4.428 19.572t20.428 5.572h31.428v62.572h-50q-43.428 0-62.286-20.572t-18.857-60.857v-37.429h-37.429v-62.572h37.428v-181.429h74.857v181.429h50zM438.857 393.143v-274.286q0-34-24.143-58.143t-58.143-24.143h-274.286q-34 0-58.143 24.143t-24.143 58.143v274.286q0 34 24.143 58.143t58.143 24.143h274.286q34 0 58.143-24.143t24.143-58.143z" horiz-adv-x="439" />
<glyph unicode="&#xe61b;" d="M365.714 237.714v36.572q0 7.428-5.428 12.857t-12.857 5.428h-91.428v91.428q0 7.428-5.428 12.857t-12.857 5.428h-36.571q-7.428 0-12.857-5.428t-5.429-12.857v-91.428h-91.428q-7.428 0-12.857-5.428t-5.428-12.857v-36.572q0-7.428 5.428-12.857t12.857-5.429h91.428v-91.428q0-7.428 5.428-12.857t12.857-5.428h36.571q7.428 0 12.857 5.428t5.429 12.857v91.428h91.428q7.428 0 12.857 5.428t5.428 12.857zM438.857 393.143v-274.286q0-34-24.143-58.143t-58.143-24.143h-274.286q-34 0-58.143 24.143t-24.143 58.143v274.286q0 34 24.143 58.143t58.143 24.143h274.286q34 0 58.143-24.143t24.143-58.143z" horiz-adv-x="439" />
<glyph unicode="&#xe61c;" d="M328.286 191.428q0 7.428-5.428 12.857l-51.714 51.714 51.714 51.714q5.428 5.428 5.428 12.857 0 7.715-5.428 13.143l-25.714 25.714q-5.428 5.429-13.143 5.429-7.428 0-12.857-5.429l-51.714-51.714-51.714 51.714q-5.428 5.429-12.857 5.429-7.714 0-13.143-5.429l-25.715-25.714q-5.428-5.428-5.428-13.143 0-7.428 5.428-12.857l51.715-51.714-51.715-51.714q-5.428-5.428-5.428-12.857 0-7.714 5.428-13.143l25.715-25.714q5.428-5.428 13.143-5.428 7.429 0 12.857 5.428l51.714 51.714 51.714-51.714q5.428-5.428 12.857-5.428 7.714 0 13.143 5.428l25.714 25.714q5.428 5.428 5.428 13.143zM438.857 256q0-59.714-29.428-110.143t-79.857-79.857-110.143-29.428-110.143 29.428-79.857 79.857-29.428 110.143 29.428 110.143 79.857 79.857 110.143 29.428 110.143-29.428 79.857-79.857 29.428-110.143z" horiz-adv-x="439" />
<glyph unicode="&#xe61d;" d="M365.714 171.143q0 3.143-0.572 4.572-0.857 2.286-11 8.428t-25.286 14.143l-15.143 8.286q-1.428 0.857-5.428 3.714t-7.143 4.286-6 1.428q-5.143 0-13.428-9.286t-16.286-18.714-12.572-9.428q-2 0-4.714 1t-4.428 1.857-4.857 2.714-4 2.428q-28.285 15.714-48.715 36.143t-36.143 48.714q-0.571 0.857-2.429 4t-2.714 4.857-1.857 4.428-1 4.714q0 3.714 5.857 9.572t12.857 11 12.857 11.286 5.857 10.428q0 2.857-1.429 6t-4.286 7.143-3.714 5.428q-0.857 1.714-4.286 8.143t-7.143 13-7.571 13.571-7.143 11.572-4.714 5.143-4.571 0.572q-13.715 0-28.857-6.285-13.143-6-22.857-27t-9.715-37.286q0-4.572 0.715-9.714t1.428-8.714 2.572-9.428 2.857-8.428 3.572-9.428 3.143-8.572q17.143-46.857 61.857-91.572t91.572-61.857q1.714-0.572 8.572-3.143t9.428-3.572 8.428-2.857 9.428-2.572 8.714-1.428 9.714-0.714q16.286 0 37.286 9.714t27 22.857q6.286 15.143 6.286 28.857zM438.857 393.143v-274.286q0-34-24.143-58.143t-58.143-24.143h-274.286q-34 0-58.143 24.143t-24.143 58.143v274.286q0 34 24.143 58.143t58.143 24.143h274.286q34 0 58.143-24.143t24.143-58.143z" horiz-adv-x="439" />
<glyph unicode="&#xe61e;" d="M256 118.857v54.857q0 4-2.571 6.572t-6.571 2.572h-54.857q-4 0-6.571-2.572t-2.571-6.572v-54.857q0-4 2.571-6.572t6.572-2.572h54.857q4 0 6.571 2.572t2.572 6.572zM329.143 310.857q0 25.143-15.857 46.572t-39.572 33.143-48.572 11.714q-69.428 0-106-60.857-4.285-6.857 2.285-12l37.715-28.571q2-1.714 5.428-1.714 4.572 0 7.143 3.428 15.143 19.429 24.571 26.286 9.714 6.857 24.572 6.857 13.714 0 24.428-7.429t10.714-16.857q0-10.857-5.714-17.428t-19.428-12.857q-18-8-33-24.715t-15-35.857v-10.286q0-4 2.571-6.572t6.571-2.572h54.857q4 0 6.571 2.572t2.572 6.572q0 5.428 6.143 14.143t15.572 14.143q9.143 5.143 14 8.143t13.143 10 12.714 13.714 8 17.286 3.572 23.143zM438.857 256q0-59.714-29.428-110.143t-79.857-79.857-110.143-29.428-110.143 29.428-79.857 79.857-29.428 110.143 29.428 110.143 79.857 79.857 110.143 29.428 110.143-29.428 79.857-79.857 29.428-110.143z" horiz-adv-x="439" />
<glyph unicode="&#xe61f;" d="M366.857 302.286q0 8-5.143 13.143l-26 25.715q-5.428 5.428-12.857 5.428t-12.857-5.428l-116.572-116.286-64.572 64.572q-5.428 5.428-12.857 5.428t-12.857-5.428l-26-25.714q-5.143-5.143-5.143-13.143 0-7.714 5.143-12.857l103.428-103.428q5.428-5.428 12.857-5.428 7.714 0 13.143 5.428l155.143 155.143q5.143 5.143 5.143 12.857zM438.857 256q0-59.714-29.428-110.143t-79.857-79.857-110.143-29.428-110.143 29.428-79.857 79.857-29.428 110.143 29.428 110.143 79.857 79.857 110.143 29.428 110.143-29.428 79.857-79.857 29.428-110.143z" horiz-adv-x="439" />
<glyph unicode="&#xe620;" d="M73.143 128q0 7.428-5.428 12.857t-12.857 5.428-12.857-5.428-5.428-12.857 5.428-12.857 12.857-5.428 12.857 5.428 5.428 12.857zM475.428 292.572q0 14.571-11.143 25.571t-25.428 11h-164.572q0 5.714 4.286 13.857t9.428 15.714 9.428 19.428 4.286 24.143q0 19.143-12.714 27.857t-33 8.714q-6.857 0-25.714-39.714-6.857-12.572-10.572-18.572-11.428-18.286-32-41.428-20.286-23.143-28.857-30.286-19.715-16.286-40-16.286h-9.143v-182.857h9.143q20.571 0 47.715-9.143t55.286-18.286 51.286-9.143q54 0 54 47.714 0 7.428-1.428 16 8.572 4.572 13.572 15t5 21-5.143 19.714q15.143 14.286 15.143 34 0 7.143-2.857 15.857t-7.143 13.571h94.572q14.857 0 25.714 10.857t10.857 25.715zM512 292.857q0-30-21.572-51.714t-51.572-21.714h-48.286q-1.143-17.714-10.572-34 0.857-6 0.857-12.286 0-28.857-17.143-50.857 0.286-39.714-24.286-62.714t-64.857-23q-38 0-92 19.714-46.857 16.857-63.715 16.857h-82.285q-15.143 0-25.857 10.714t-10.714 25.857v182.857q0 15.143 10.714 25.857t25.857 10.714h82.285q2.857 0 6.143 1.286t6.715 4 6.429 5.143 6.857 6.429 5.857 6.143 5.428 6.143 4 4.857q18.572 21.143 28.572 36.857 3.714 6 9.428 17.714t10.572 20.572 11.572 18 15.714 14.143 19.857 5q35.715 0 59-19.143t23.286-54q0-19.428-6.286-36.572h106.857q29.714 0 51.428-21.714t21.714-51.143z" />
<glyph unicode="&#xe621;" d="M193.714 56.857q0-10.857-2.857-20.286h-108.572q-27.143 0-49 16.143t-29.572 42.143q6.857 12.857 19.715 22.143t28.572 14.143 30.572 6.857 30.572 2q9.143 0 14-0.572 1.714-1.143 8.714-6t9.429-6.572 8.857-6.572 9.143-7.286 7.857-7.286 7.571-8.428 6-8.714 5-9.857 2.714-10.286 1.286-11.572zM110 157.143q-66.857-2-110-24.286v123.714q29.428-33.714 78-33.714 9.143 0 20 1.429-6-17.429-6-24.571 0-19.143 18-42.572zM159.429 303.143q0-28.572-12.429-45.857t-40.143-17.286q-14.572 0-27.715 7.428t-22.285 19.286-16 26.714-10.143 29.714-3.285 28.286q0 27.428 14.715 47.143t41.285 19.714q18.857 0 34-11.714t24-29.715 13.428-37.143 4.572-36.572zM438.857 329.143v-210.286q0-34-24.143-58.143t-58.143-24.143h-133.714q11.143 20.857 11.143 44.857 0 18.857-6.286 35t-15.857 26.572-20.572 20.286-20.572 17-15.857 15.572-6.286 17q0 10.286 6.571 19.428t16 17.572 18.714 18.428 15.857 26.572 6.571 37.428-7.572 41.572-21.572 33.857q-1.714 1.714-4 3.143t-3.571 2.143-2.857 2.715-3 4.857h38.572l38.572 18.286h-124.857q-39.428 0-69.857-11t-52.143-38.143q0 36 23.143 60.857t59.143 24.857h274.286q34 0 58.143-24.143t24.143-58.143v-27.428h-73.143v73.143h-36.572v-73.143h-73.143v-36.572h73.143v-73.143h36.572v73.143h73.143z" horiz-adv-x="439" />
<glyph unicode="&#xe622;" d="M128 448h256v-64h-256zM480 352h-448c-17.6 0-32-14.4-32-32v-160c0-17.6 14.398-32 32-32h96v-128h256v128h96c17.6 0 32 14.4 32 32v160c0 17.6-14.4 32-32 32zM352 32h-192v160h192v-160zM487.2 304c0-12.813-10.387-23.2-23.199-23.2s-23.201 10.387-23.201 23.2 10.388 23.2 23.201 23.2c12.813 0 23.199-10.387 23.199-23.2z" horiz-adv-x="439" />
<glyph unicode="&#xe623;" d="M64 32v384h64v-176l160 160v-160l160 160v-352l-160 160v-160l-160 160v-176z" />
<glyph unicode="&#xe624;" d="M448 416v-384h-64v176l-160-160v160l-160-160v352l160-160v160l160-160v176z" />
<glyph unicode="&#xe625;" d="M128 32v384h64v-176l160 160v-352l-160 160v-176z" />
<glyph unicode="&#xe626;" d="M384 416v-384h-64v176l-160-160v352l160-160v176z" />
<glyph unicode="&#xe627;" d="M368 480h-224c-26.4 0-48-21.6-48-48v-416c0-26.4 21.6-48 48-48h224c26.4 0 48 21.6 48 48v416c0 26.4-21.6 48-48 48zM192 456h128v-16h-128v16zM256 0c-17.673 0-32 14.327-32 32s14.327 32 32 32 32-14.327 32-32-14.327-32-32-32zM384 96h-256v320h256v-320z" />
<glyph unicode="&#xe628;" d="M256 480c-141.385 0-256-114.615-256-256s114.615-256 256-256 256 114.615 256 256-114.615 256-256 256zM384 306.745l-82.744-82.745 82.744-82.744v-45.256h-45.256l-82.744 82.744-82.745-82.744h-45.255v45.256l82.745 82.744-82.745 82.745v45.255h45.255l82.745-82.745 82.744 82.745h45.256v-45.255z" />
</font>
</defs>
</svg>
