<?xml version="1.0" encoding="utf-8"?>
<!-- Generated by IcoMoon.io -->
<!DOCTYPE svg PUBLIC "-//W3C//DTD SVG 1.1//EN" "http://www.w3.org/Graphics/SVG/1.1/DTD/svg11.dtd">
<svg version="1.1" xmlns="http://www.w3.org/2000/svg" xmlns:xlink="http://www.w3.org/1999/xlink" width="36" height="116" viewBox="0 0 36 116">
<svg id="icon-ok-inverted" width="14" height="16" viewBox="0 0 14 16" x="0" y="0">
<path fill="rgb(84, 84, 84)" d="M11.464 5.554q0-0.25-0.161-0.411l-0.813-0.804q-0.17-0.17-0.402-0.17t-0.402 0.17l-3.643 3.634-2.018-2.018q-0.17-0.17-0.402-0.17t-0.402 0.17l-0.813 0.804q-0.161 0.161-0.161 0.411 0 0.241 0.161 0.402l3.232 3.232q0.17 0.17 0.402 0.17 0.241 0 0.411-0.17l4.848-4.848q0.161-0.161 0.161-0.402zM13.714 7q0 1.866-0.92 3.442t-2.496 2.496-3.442 0.92-3.442-0.92-2.496-2.496-0.92-3.442 0.92-3.442 2.496-2.496 3.442-0.92 3.442 0.92 2.496 2.496 0.92 3.442z"></path>
</svg>
<svg id="icon-parcel" width="14" height="16" viewBox="0 0 14 16" x="20" y="0">
<path fill="rgb(84, 84, 84)" d="M8.286 11.107v-6.393h-2.857v6.393q0 0.223 0.161 0.344t0.411 0.121h1.714q0.25 0 0.411-0.121t0.161-0.344zM4.214 3.571h1.741l-1.125-1.438q-0.232-0.277-0.616-0.277-0.357 0-0.607 0.25t-0.25 0.607 0.25 0.607 0.607 0.25zM10.357 2.714q0-0.357-0.25-0.607t-0.607-0.25q-0.384 0-0.616 0.277l-1.116 1.438h1.732q0.357 0 0.607-0.25t0.25-0.607zM13.714 5v2.857q0 0.125-0.080 0.205t-0.205 0.080h-0.857v3.714q0 0.357-0.25 0.607t-0.607 0.25h-9.714q-0.357 0-0.607-0.25t-0.25-0.607v-3.714h-0.857q-0.125 0-0.205-0.080t-0.080-0.205v-2.857q0-0.125 0.080-0.205t0.205-0.080h3.929q-0.83 0-1.415-0.585t-0.585-1.415 0.585-1.415 1.415-0.585q0.955 0 1.5 0.687l1.143 1.473 1.143-1.473q0.545-0.688 1.5-0.688 0.83 0 1.415 0.585t0.585 1.415-0.585 1.415-1.415 0.585h3.929q0.125 0 0.205 0.080t0.080 0.205z"></path>
</svg>
<svg id="icon-bug" width="15" height="16" viewBox="0 0 15 16" x="0" y="20">
<path fill="rgb(84, 84, 84)" d="M14.571 7.571q0 0.232-0.17 0.402t-0.402 0.17h-2q0 1.527-0.598 2.589l1.857 1.866q0.17 0.17 0.17 0.402t-0.17 0.402q-0.161 0.17-0.402 0.17t-0.402-0.17l-1.768-1.759q-0.045 0.045-0.134 0.116t-0.375 0.254-0.58 0.326-0.732 0.259-0.866 0.116v-8h-1.143v8q-0.455 0-0.906-0.121t-0.777-0.295-0.589-0.348-0.388-0.29l-0.134-0.125-1.634 1.848q-0.179 0.188-0.429 0.188-0.214 0-0.384-0.143-0.17-0.161-0.183-0.397t0.138-0.415l1.804-2.027q-0.518-1.018-0.518-2.446h-2q-0.232 0-0.402-0.17t-0.17-0.402 0.17-0.402 0.402-0.17h2v-2.625l-1.545-1.545q-0.17-0.17-0.17-0.402t0.17-0.402 0.402-0.17 0.402 0.17l1.545 1.545h7.536l1.545-1.545q0.17-0.17 0.402-0.17t0.402 0.17 0.17 0.402-0.17 0.402l-1.545 1.545v2.625h2q0.232 0 0.402 0.17t0.17 0.402zM10.286 2.429h-5.714q0-1.188 0.835-2.022t2.022-0.835 2.022 0.835 0.835 2.022z"></path>
</svg>
<svg id="icon-shield" width="11" height="16" viewBox="0 0 11 16" x="20" y="20">
<path fill="rgb(84, 84, 84)" d="M9.714 7.571v-5.714h-4v10.152q1.063-0.563 1.902-1.223 2.098-1.643 2.098-3.214zM11.429 0.714v6.857q0 0.768-0.299 1.522t-0.741 1.339-1.054 1.138-1.129 0.92-1.080 0.692-0.799 0.442-0.379 0.179q-0.107 0.054-0.232 0.054t-0.232-0.054q-0.143-0.063-0.379-0.179t-0.799-0.442-1.080-0.692-1.129-0.92-1.054-1.138-0.741-1.339-0.299-1.522v-6.857q0-0.232 0.17-0.402t0.402-0.17h10.286q0.232 0 0.402 0.17t0.17 0.402z"></path>
</svg>
<svg id="icon-diagram" width="17" height="16" viewBox="0 0 17 16" x="0" y="40">
<path fill="rgb(84, 84, 84)" d="M4.571 8.143v3.429h-2.286v-3.429h2.286zM8 3.571v8h-2.286v-8h2.286zM11.429 5.857v5.714h-2.286v-5.714h2.286zM14.857 2.429v9.143h-2.286v-9.143h2.286zM16 12.429v-10.857q0-0.116-0.085-0.201t-0.201-0.085h-14.286q-0.116 0-0.201 0.085t-0.085 0.201v10.857q0 0.116 0.085 0.201t0.201 0.085h14.286q0.116 0 0.201-0.085t0.085-0.201zM17.143 1.571v10.857q0 0.589-0.42 1.009t-1.009 0.42h-14.286q-0.589 0-1.009-0.42t-0.42-1.009v-10.857q0-0.589 0.42-1.009t1.009-0.42h14.286q0.589 0 1.009 0.42t0.42 1.009z"></path>
</svg>
<svg id="icon-ok" width="16" height="16" viewBox="0 0 16 16" x="20" y="40">
<path fill="rgb(84, 84, 84)" d="M14.92 4.054q0 0.357-0.25 0.607l-7.679 7.679q-0.25 0.25-0.607 0.25t-0.607-0.25l-4.446-4.446q-0.25-0.25-0.25-0.607t0.25-0.607l1.214-1.214q0.25-0.25 0.607-0.25t0.607 0.25l2.625 2.634 5.857-5.866q0.25-0.25 0.607-0.25t0.607 0.25l1.214 1.214q0.25 0.25 0.25 0.607z"></path>
</svg>
<svg id="icon-lock" width="10" height="16" viewBox="0 0 10 16" x="0" y="60">
<path fill="rgb(84, 84, 84)" d="M2.857 5.857h4.571v-1.714q0-0.946-0.67-1.616t-1.616-0.67-1.616 0.67-0.67 1.616v1.714zM10.286 6.714v5.143q0 0.357-0.25 0.607t-0.607 0.25h-8.571q-0.357 0-0.607-0.25t-0.25-0.607v-5.143q0-0.357 0.25-0.607t0.607-0.25h0.286v-1.714q0-1.643 1.179-2.821t2.821-1.179 2.821 1.179 1.179 2.821v1.714h0.286q0.357 0 0.607 0.25t0.25 0.607z"></path>
</svg>
<svg id="icon-notice" width="11" height="16" viewBox="0 0 11 16" x="20" y="60">
<path fill="rgb(84, 84, 84)" d="M9.143 9.571v0.571q0 0.125-0.080 0.205t-0.205 0.080h-6.286q-0.125 0-0.205-0.080t-0.080-0.205v-0.571q0-0.125 0.080-0.205t0.205-0.080h6.286q0.125 0 0.205 0.080t0.080 0.205zM9.143 7.286v0.571q0 0.125-0.080 0.205t-0.205 0.080h-6.286q-0.125 0-0.205-0.080t-0.080-0.205v-0.571q0-0.125 0.080-0.205t0.205-0.080h6.286q0.125 0 0.205 0.080t0.080 0.205zM1.143 12.714h9.143v-6.857h-3.714q-0.357 0-0.607-0.25t-0.25-0.607v-3.714h-4.571v11.429zM6.857 4.714h3.357q-0.089-0.259-0.196-0.366l-2.795-2.795q-0.107-0.107-0.366-0.196v3.357zM11.429 5v8q0 0.357-0.25 0.607t-0.607 0.25h-9.714q-0.357 0-0.607-0.25t-0.25-0.607v-12q0-0.357 0.25-0.607t0.607-0.25h5.714q0.357 0 0.786 0.179t0.679 0.429l2.786 2.786q0.25 0.25 0.429 0.679t0.179 0.786z"></path>
</svg>
<svg id="icon-cross" width="14" height="16" viewBox="0 0 14 16" x="0" y="80">
<path fill="rgb(84, 84, 84)" d="M10.259 9.018q0-0.232-0.17-0.402l-1.616-1.616 1.616-1.616q0.17-0.17 0.17-0.402 0-0.241-0.17-0.411l-0.804-0.804q-0.17-0.17-0.411-0.17-0.232 0-0.402 0.17l-1.616 1.616-1.616-1.616q-0.17-0.17-0.402-0.17-0.241 0-0.411 0.17l-0.804 0.804q-0.17 0.17-0.17 0.411 0 0.232 0.17 0.402l1.616 1.616-1.616 1.616q-0.17 0.17-0.17 0.402 0 0.241 0.17 0.411l0.804 0.804q0.17 0.17 0.411 0.17 0.232 0 0.402-0.17l1.616-1.616 1.616 1.616q0.17 0.17 0.402 0.17 0.241 0 0.411-0.17l0.804-0.804q0.17-0.17 0.17-0.411zM13.714 7q0 1.866-0.92 3.442t-2.496 2.496-3.442 0.92-3.442-0.92-2.496-2.496-0.92-3.442 0.92-3.442 2.496-2.496 3.442-0.92 3.442 0.92 2.496 2.496 0.92 3.442z"></path>
</svg>
<svg id="icon-question" width="14" height="16" viewBox="0 0 14 16" x="20" y="80">
<path fill="rgb(84, 84, 84)" d="M8 11.286v-1.714q0-0.125-0.080-0.205t-0.205-0.080h-1.714q-0.125 0-0.205 0.080t-0.080 0.205v1.714q0 0.125 0.080 0.205t0.205 0.080h1.714q0.125 0 0.205-0.080t0.080-0.205zM10.286 5.286q0-0.786-0.496-1.455t-1.237-1.036-1.518-0.366q-2.17 0-3.313 1.902-0.134 0.214 0.071 0.375l1.179 0.893q0.063 0.054 0.17 0.054 0.143 0 0.223-0.107 0.473-0.607 0.768-0.821 0.304-0.214 0.768-0.214 0.429 0 0.763 0.232t0.335 0.527q0 0.339-0.179 0.545t-0.607 0.402q-0.563 0.25-1.031 0.772t-0.469 1.121v0.321q0 0.125 0.080 0.205t0.205 0.080h1.714q0.125 0 0.205-0.080t0.080-0.205q0-0.17 0.192-0.442t0.487-0.442q0.286-0.161 0.438-0.254t0.411-0.313 0.397-0.429 0.25-0.54 0.112-0.723zM13.714 7q0 1.866-0.92 3.442t-2.496 2.496-3.442 0.92-3.442-0.92-2.496-2.496-0.92-3.442 0.92-3.442 2.496-2.496 3.442-0.92 3.442 0.92 2.496 2.496 0.92 3.442z"></path>
</svg>
<svg id="icon-untitled32" width="14" height="16" viewBox="0 0 14 16" x="0" y="100">
<path fill="rgb(84, 84, 84)" d="M11.464 5.554q0-0.25-0.161-0.411l-0.813-0.804q-0.17-0.17-0.402-0.17t-0.402 0.17l-3.643 3.634-2.018-2.018q-0.17-0.17-0.402-0.17t-0.402 0.17l-0.813 0.804q-0.161 0.161-0.161 0.411 0 0.241 0.161 0.402l3.232 3.232q0.17 0.17 0.402 0.17 0.241 0 0.411-0.17l4.848-4.848q0.161-0.161 0.161-0.402zM13.714 7q0 1.866-0.92 3.442t-2.496 2.496-3.442 0.92-3.442-0.92-2.496-2.496-0.92-3.442 0.92-3.442 2.496-2.496 3.442-0.92 3.442 0.92 2.496 2.496 0.92 3.442z"></path>
</svg>
<svg id="icon-point" width="16" height="16" viewBox="0 0 16 16" x="20" y="100">
<path fill="rgb(84, 84, 84)" d="M2.286 11q0-0.232-0.17-0.402t-0.402-0.17-0.402 0.17-0.17 0.402 0.17 0.402 0.402 0.17 0.402-0.17 0.17-0.402zM14.857 5.857q0-0.455-0.348-0.799t-0.795-0.344h-5.143q0-0.179 0.134-0.433t0.295-0.491 0.295-0.607 0.134-0.754q0-0.598-0.397-0.871t-1.031-0.272q-0.214 0-0.804 1.241-0.214 0.393-0.33 0.58-0.357 0.571-1 1.295-0.634 0.723-0.902 0.946-0.616 0.509-1.25 0.509h-0.286v5.714h0.286q0.643 0 1.491 0.286t1.728 0.571 1.603 0.286q1.688 0 1.688-1.491 0-0.232-0.045-0.5 0.268-0.143 0.424-0.469t0.156-0.656-0.161-0.616q0.473-0.446 0.473-1.063 0-0.223-0.089-0.496t-0.223-0.424h2.955q0.464 0 0.804-0.339t0.339-0.804zM16 5.848q0 0.938-0.674 1.616t-1.612 0.679h-1.509q-0.036 0.554-0.33 1.063 0.027 0.188 0.027 0.384 0 0.902-0.536 1.589 0.009 1.241-0.759 1.96t-2.027 0.719q-1.188 0-2.875-0.616-1.464-0.527-1.991-0.527h-2.571q-0.473 0-0.808-0.335t-0.335-0.808v-5.714q0-0.473 0.335-0.808t0.808-0.335h2.571q0.089 0 0.192-0.040t0.21-0.125 0.201-0.161 0.214-0.201 0.183-0.192 0.17-0.192 0.125-0.152q0.58-0.661 0.893-1.152 0.116-0.188 0.295-0.554t0.33-0.643 0.362-0.563 0.491-0.442 0.621-0.156q1.116 0 1.844 0.598t0.728 1.688q0 0.607-0.196 1.143h3.339q0.929 0 1.607 0.679t0.679 1.598z"></path>
</svg>
</svg>
