<svg width="35" height="35" viewBox="0 0 35 35" fill="none" xmlns="http://www.w3.org/2000/svg">
<g clip-path="url(#clip0)">
<path d="M19.1609 28.1786C24.4262 27.442 28.4767 22.9637 28.4767 17.5485C28.4767 14.2586 26.9813 11.3149 24.6275 9.34532L19.1609 14.7566V28.1786Z" fill="black"/>
<path d="M16.0988 28.1785V14.7565L10.6323 9.34506C8.27841 11.3147 6.78308 14.2584 6.78308 17.5482C6.78308 22.9636 10.8335 27.4419 16.0988 28.1785Z" fill="black"/>
<path d="M27.0563 8.21733C29.5742 10.7098 30.9609 14.0235 30.9609 17.5484C30.9609 21.0732 29.5742 24.3871 27.0563 26.8794C24.5384 29.3718 21.1908 30.7445 17.6299 30.7445C14.0691 30.7445 10.7215 29.3718 8.20361 26.8794C5.68571 24.3871 4.29901 21.0732 4.29901 17.5484C4.29901 14.0235 5.68571 10.7098 8.20361 8.21733C8.41971 8.00342 8.64242 7.79838 8.87028 7.60106L5.82478 4.58635C5.59986 4.78746 5.37935 4.99467 5.16369 5.20815C3.54517 6.81002 2.27431 8.6763 1.38626 10.7547C0.4663 12.9077 0 15.1934 0 17.5484C0 19.9035 0.4663 22.1892 1.38626 24.342C2.27431 26.4204 3.54517 28.2865 5.16369 29.8886C6.78207 31.4907 8.66726 32.7487 10.7669 33.6278C12.9417 34.5385 15.2509 35 17.6299 35C20.009 35 22.318 34.5385 24.4929 33.6278C26.5926 32.7487 28.4778 31.4906 30.0962 29.8886C31.7145 28.2865 32.9855 26.4204 33.8736 24.342C34.7934 22.1892 35.2599 19.9035 35.2599 17.5484C35.2599 15.1934 34.7934 12.9077 33.8736 10.7547C32.9855 8.6763 31.7145 6.81017 30.0962 5.20815C29.8805 4.99467 29.66 4.78746 29.4349 4.58635L26.3894 7.60106C26.6174 7.79824 26.8402 8.00342 27.0563 8.21733Z" fill="black"/>
<path d="M17.6299 0C20.6645 0 23.1245 2.43511 23.1245 5.43905C23.1245 8.44299 20.6645 10.8781 17.6299 10.8781C14.5953 10.8781 12.1353 8.44314 12.1353 5.43905C12.1353 2.43496 14.5953 0 17.6299 0Z" fill="black"/>
</g>
<defs>
<clipPath id="clip0">
<rect width="35" height="35" fill="white"/>
</clipPath>
</defs>
</svg>
